<svg xmlns="http://www.w3.org/2000/svg" width="76.6" height="29.216" viewBox="0 0 76.6 29.216">
  <g id="Grupo_19" data-name="Grupo 19" transform="translate(-286.981 -246.542)">
    <g id="Grupo_7" data-name="Grupo 7" transform="translate(287.592 249.073)">
      <path id="Caminho_21" data-name="Caminho 21" d="M291.179,266.729l4.993-10.894-.993-.44-6.06,13.222,19.291-6.884a2.406,2.406,0,0,1-.394-1.013Z" transform="translate(-289.119 -255.395)" fill="#11182a"/>
    </g>
    <g id="Grupo_8" data-name="Grupo 8" transform="translate(293.016 246.542)">
      <path id="Caminho_22" data-name="Caminho 22" d="M312.312,248.794a1.986,1.986,0,0,1-.573-.345,1.741,1.741,0,0,1-.437-.745h0a1.646,1.646,0,1,0-1.188,2.074h0c1-.175,1.168-.266,1.733,0l9.714,4.579a.977.977,0,0,1,.542-.946Z" transform="translate(-308.091 -246.542)" fill="#0f2958"/>
    </g>
    <g id="Grupo_15" data-name="Grupo 15" transform="translate(329.331 262.397)">
      <g id="Grupo_12" data-name="Grupo 12" transform="translate(0 0)">
        <g id="Grupo_9" data-name="Grupo 9" transform="translate(8.065)">
          <path id="Caminho_23" data-name="Caminho 23" d="M467.659,302a7.934,7.934,0,0,0-2.065.3l-.741.2c-.17.037-.234.13-.193.3l.4,1.927a.206.206,0,0,0,.282.167l.722-.2a4.953,4.953,0,0,1,1.221-.185c1.056,0,1.7.463,1.7,1.26l0,.037h-1.742c-2.3,0-3.76,1.019-3.913,2.743-.167,1.871,1.052,2.965,3.257,2.965a3.343,3.343,0,0,0,2.064-.7c.322-.263.572-.217.593,0,.013.137.023.195.033.3a.218.218,0,0,0,.238.2h1.538a.248.248,0,0,0,.262-.241l.486-5.467C472.006,303.334,470.476,302,467.659,302Zm1.163,5.671a1.613,1.613,0,0,1-1.744,1.483c-.667,0-1.03-.3-.983-.816a.9.9,0,0,1,.989-.7h1.742Z" transform="translate(-463.318 -302)" fill="#11182a"/>
        </g>
        <g id="Grupo_10" data-name="Grupo 10" transform="translate(16.668)">
          <path id="Caminho_24" data-name="Caminho 24" d="M498.87,305.817l-1.542-.37c-.307-.093-.455-.3-.439-.482.027-.3.319-.463.8-.463a9.311,9.311,0,0,1,1.707.185l.561.137c.526.09.827-.455,1-.991a1.614,1.614,0,0,0,.007-1.027c-.1-.322-.344-.43-.666-.51a12.577,12.577,0,0,0-2.383-.3c-2.279,0-3.711,1.093-3.878,2.965-.125,1.408.617,2.224,2.379,2.631l1.431.371c.362.093.509.315.488.556-.028.315-.3.5-.767.5a11.524,11.524,0,0,1-2.253-.3l-.851-.222a.221.221,0,0,0-.293.167l-.731,1.964a.194.194,0,0,0,.14.3l.961.241a11.376,11.376,0,0,0,2.806.333c2.261,0,3.694-1.112,3.86-2.983C501.334,307.078,500.611,306.244,498.87,305.817Z" transform="translate(-493.41 -302)" fill="#11182a"/>
        </g>
        <g id="Grupo_11" data-name="Grupo 11">
          <path id="Caminho_25" data-name="Caminho 25" d="M442.221,308.8q-.036-.223-.263-.167l-1.133.241a7,7,0,0,1-1.2.13,1.5,1.5,0,0,1-1.6-.927l2.2-.315c2.157-.3,3.271-1.149,3.4-2.631.17-1.909-1.148-3.132-3.465-3.132-2.909,0-4.759,1.835-5.02,4.762-.259,2.909,1.227,4.744,4.266,4.744a8.383,8.383,0,0,0,1.779-.2l1.174-.278a.245.245,0,0,0,.212-.3Zm-2.4-4.3q1.112,0,1.052.667c-.036.408-.337.667-.917.723l-1.954.3A1.82,1.82,0,0,1,439.824,304.5Z" transform="translate(-435.109 -302)" fill="#11182a"/>
        </g>
      </g>
      <g id="Grupo_14" data-name="Grupo 14" transform="translate(24.686 0.204)">
        <g id="Grupo_13" data-name="Grupo 13">
          <path id="Caminho_26" data-name="Caminho 26" d="M525.123,315.685a.308.308,0,0,1-.294.185h-2.483c-.185,0-.25-.111-.161-.278l.827-1.8c.782-1.7.668-2.928.022-5.244l-1.562-5.56c-.059-.167.025-.278.21-.278h2.539a.249.249,0,0,1,.261.185s.335,1.259.53,2.1.377,1.795.637,3.093c.042.173.192.122.24-.014.155-.43.684-1.726,1.234-3.033s.86-2.123.86-2.123a.3.3,0,0,1,.3-.2h2.539c.185,0,.249.111.16.278Z" transform="translate(-521.453 -302.713)" fill="#11182a"/>
        </g>
      </g>
    </g>
    <g id="Grupo_16" data-name="Grupo 16" transform="translate(295.565 260.053)">
      <path id="Caminho_27" data-name="Caminho 27" d="M322.971,311.593a3.944,3.944,0,0,1-1.038.429,5.649,5.649,0,0,1-1.584.206,3.148,3.148,0,0,1-2.41-.893,3.743,3.743,0,0,1-.922-2.456,6.834,6.834,0,0,1,.244-2.242,5.389,5.389,0,0,1,.961-1.9,4.761,4.761,0,0,1,1.647-1.314,5.1,5.1,0,0,1,2.285-.489,5.746,5.746,0,0,1,1.792.292l-.413,1.014a3.913,3.913,0,0,0-.8-.215,4.967,4.967,0,0,0-.754-.06,3.452,3.452,0,0,0-1.644.387,3.679,3.679,0,0,0-1.23,1.048,4.607,4.607,0,0,0-.748,1.529,5.554,5.554,0,0,0-.2,1.829,2.9,2.9,0,0,0,.62,1.787,2.138,2.138,0,0,0,1.715.653,3.943,3.943,0,0,0,.73-.069,5.929,5.929,0,0,0,.672-.163,5.15,5.15,0,0,0,.542-.2,1.911,1.911,0,0,0,.352-.189Z" transform="translate(-317.006 -300.324)" fill="#0f2958"/>
      <path id="Caminho_28" data-name="Caminho 28" d="M342.754,303.536a9.091,9.091,0,0,1,1.416-.429,7.068,7.068,0,0,1,1.532-.172,5.428,5.428,0,0,1,.76.051,3.5,3.5,0,0,1,.7.172l-.24,1.014a4.769,4.769,0,0,0-1.389-.206,5.879,5.879,0,0,0-.893.069,6.154,6.154,0,0,0-.885.206l-1.472,7.782h-1.118Z" transform="translate(-334.257 -300.324)" fill="#0f2958"/>
      <path id="Caminho_29" data-name="Caminho 29" d="M367.951,305.219a2.352,2.352,0,0,1-.392,1.563,2.97,2.97,0,0,1-1.278.953,7.841,7.841,0,0,1-2.026.507q-1.191.155-2.653.223l.019.361a4.021,4.021,0,0,0,.152.928,1.857,1.857,0,0,0,.418.747,2.026,2.026,0,0,0,.794.507,3.663,3.663,0,0,0,1.277.189,4.375,4.375,0,0,0,1.207-.172,4.214,4.214,0,0,0,1.137-.515l.175,1.031a5.094,5.094,0,0,1-1.267.507,5.666,5.666,0,0,1-1.422.18,4.721,4.721,0,0,1-1.608-.24,2.916,2.916,0,0,1-1.087-.67,2.629,2.629,0,0,1-.632-1.031,4.885,4.885,0,0,1-.242-1.323,7.176,7.176,0,0,1,.222-2.182,5.836,5.836,0,0,1,.89-1.941,4.691,4.691,0,0,1,1.54-1.383,4.312,4.312,0,0,1,2.154-.524,2.679,2.679,0,0,1,1.887.627A2.325,2.325,0,0,1,367.951,305.219Zm-2.671-1.271a2.909,2.909,0,0,0-1.279.284,3.567,3.567,0,0,0-1.046.764,4.619,4.619,0,0,0-.778,1.116,5.1,5.1,0,0,0-.456,1.34,19.269,19.269,0,0,0,2.456-.189,6.137,6.137,0,0,0,1.59-.429,1.85,1.85,0,0,0,.836-.661,1.5,1.5,0,0,0,.212-.885,1.3,1.3,0,0,0-.458-1A1.685,1.685,0,0,0,365.28,303.948Z" transform="translate(-348.076 -300.324)" fill="#0f2958"/>
      <path id="Caminho_30" data-name="Caminho 30" d="M392.824,312.125a2.953,2.953,0,0,1-.2-.472,3.535,3.535,0,0,1-.14-.541,3.793,3.793,0,0,1-1.225.859,3.46,3.46,0,0,1-1.359.275,3.045,3.045,0,0,1-1.064-.189,2.541,2.541,0,0,1-.912-.584,3.12,3.12,0,0,1-.667-1.022,4.386,4.386,0,0,1-.311-1.486,6.469,6.469,0,0,1,.318-2.491,5.077,5.077,0,0,1,1.152-1.9,5.25,5.25,0,0,1,1.835-1.211,6.323,6.323,0,0,1,2.368-.429,6.077,6.077,0,0,1,2.072.36l-1.048,5.343q-.081.43-.13.807a4,4,0,0,0-.031.721,4.348,4.348,0,0,0,.132.876,4.725,4.725,0,0,0,.358.911Zm.582-8.022q-.315-.069-.576-.1a4.173,4.173,0,0,0-.537-.034,3.981,3.981,0,0,0-3.222,1.495,4.482,4.482,0,0,0-.792,1.529,5.121,5.121,0,0,0-.211,1.752,4.359,4.359,0,0,0,.2,1.176,2.155,2.155,0,0,0,.42.756,1.553,1.553,0,0,0,.584.412,1.86,1.86,0,0,0,.69.129,2.671,2.671,0,0,0,1.313-.335,4.058,4.058,0,0,0,1.126-.953,4.737,4.737,0,0,1,.082-1.065q.106-.6.2-1.082Z" transform="translate(-366.939 -300.324)" fill="#0f2958"/>
      <path id="Caminho_31" data-name="Caminho 31" d="M418.164,294.007l1.159-.206-.516,2.817h3.143l-.174.962h-3.169l-.824,4.346a6.429,6.429,0,0,0-.112.661,4.066,4.066,0,0,0-.024.7,1.392,1.392,0,0,0,.437,1.082,1.526,1.526,0,0,0,.969.309,3.35,3.35,0,0,0,.955-.12,6.083,6.083,0,0,0,.84-.327l.158,1.014a6.894,6.894,0,0,1-1.029.327,4.885,4.885,0,0,1-1.143.137,3.437,3.437,0,0,1-.853-.1,1.976,1.976,0,0,1-.718-.343,1.833,1.833,0,0,1-.517-.636,2.471,2.471,0,0,1-.233-1,6.95,6.95,0,0,1,.152-1.7Z" transform="translate(-388.059 -293.801)" fill="#0f2958"/>
    </g>
    <g id="Grupo_17" data-name="Grupo 17" transform="translate(305.982 252.477)">
      <circle id="Elipse_7" data-name="Elipse 7" cx="1.641" cy="1.641" r="1.641" transform="translate(0 0.754) rotate(-13.283)" fill="#0f2958"/>
    </g>
    <g id="Grupo_18" data-name="Grupo 18" transform="translate(286.981 259.71)">
      <circle id="Elipse_8" data-name="Elipse 8" cx="1.641" cy="1.641" r="1.641" transform="translate(0 0)" fill="#11182a"/>
    </g>
  </g>
</svg>
