<svg id="Grupo_20" data-name="Grupo 20" xmlns="http://www.w3.org/2000/svg" width="20.056" height="20.056" viewBox="0 0 20.056 20.056">
  <g id="Grupo_20-2" data-name="Grupo 20" transform="translate(0 0)">
    <path id="Caminho_32" data-name="Caminho 32" d="M647.219,232.056H638.58a5.715,5.715,0,0,1-5.708-5.708v-8.64A5.715,5.715,0,0,1,638.58,212h8.639a5.715,5.715,0,0,1,5.708,5.708v8.64A5.715,5.715,0,0,1,647.219,232.056Zm-8.639-18.337a3.994,3.994,0,0,0-3.989,3.989v8.64a3.994,3.994,0,0,0,3.989,3.989h8.639a3.994,3.994,0,0,0,3.989-3.989v-8.64a3.994,3.994,0,0,0-3.989-3.989Z" transform="translate(-632.872 -212)" fill="#819649"/>
  </g>
  <g id="Grupo_21" data-name="Grupo 21" transform="translate(4.893 4.893)">
    <path id="Caminho_33" data-name="Caminho 33" d="M797.8,382.063a5.135,5.135,0,1,1,5.135-5.135A5.141,5.141,0,0,1,797.8,382.063Zm0-8.551a3.416,3.416,0,1,0,3.416,3.416A3.42,3.42,0,0,0,797.8,373.512Z" transform="translate(-792.664 -371.793)" fill="#819649"/>
  </g>
  <g id="Grupo_22" data-name="Grupo 22" transform="translate(14.149 3.364)">
    <path id="Caminho_34" data-name="Caminho 34" d="M1097.449,323.118a1.234,1.234,0,1,1-1.234-1.234A1.234,1.234,0,0,1,1097.449,323.118Z" transform="translate(-1094.981 -321.884)" fill="#819649"/>
  </g>
</svg>
