<svg xmlns="http://www.w3.org/2000/svg" width="81.329" height="30.761" viewBox="0 0 81.329 30.761">
  <g id="Grupo_29" data-name="Grupo 29" transform="translate(-69.945 -164.879)">
    <path id="Caminho_35" data-name="Caminho 35" d="M77.666,199.8l5.255-11.466-1.045-.463L75.5,201.789l20.3-7.246a2.534,2.534,0,0,1-.415-1.066Z" transform="translate(-4.909 -20.329)" fill="#012d76"/>
    <g id="Grupo_26" data-name="Grupo 26" transform="translate(115.224 181.577)">
      <g id="Grupo_25" data-name="Grupo 25" transform="translate(0 0)">
        <g id="Grupo_24" data-name="Grupo 24">
          <g id="Grupo_23" data-name="Grupo 23">
            <path id="Caminho_36" data-name="Caminho 36" d="M538.616,309.011a8.343,8.343,0,0,0-2.173.312l-.78.215c-.179.039-.246.136-.2.312l.424,2.028a.217.217,0,0,0,.3.176l.76-.215a5.215,5.215,0,0,1,1.285-.2c1.112,0,1.79.488,1.793,1.326l0,.039h-1.833c-2.419,0-3.957,1.073-4.119,2.887-.175,1.97,1.107,3.121,3.428,3.121a3.519,3.519,0,0,0,2.172-.741c.339-.277.6-.228.624,0,.014.144.025.2.035.317a.23.23,0,0,0,.25.209h1.619a.261.261,0,0,0,.276-.254l.512-5.754C543.192,310.415,541.581,309.011,538.616,309.011Zm1.224,5.969A1.7,1.7,0,0,1,538,316.54c-.7,0-1.084-.312-1.035-.858a.946.946,0,0,1,1.041-.741h1.833Z" transform="translate(-525.559 -309.011)" fill="#012d76"/>
            <path id="Caminho_37" data-name="Caminho 37" d="M617.955,313.029l-1.623-.39c-.323-.1-.479-.312-.462-.507.028-.312.336-.488.843-.488a9.81,9.81,0,0,1,1.8.2l.59.145c.553.094.871-.479,1.049-1.043a1.7,1.7,0,0,0,.007-1.081c-.107-.339-.362-.452-.7-.537a13.232,13.232,0,0,0-2.508-.312c-2.4,0-3.906,1.151-4.081,3.121-.132,1.482.65,2.341,2.5,2.77l1.506.39c.381.1.536.332.514.585-.03.332-.32.527-.807.527a12.129,12.129,0,0,1-2.371-.312l-.9-.234a.232.232,0,0,0-.308.176l-.769,2.068a.2.2,0,0,0,.148.312l1.011.253a11.966,11.966,0,0,0,2.953.351c2.38,0,3.888-1.17,4.063-3.14C620.549,314.355,619.788,313.478,617.955,313.029Z" transform="translate(-594.665 -309.011)" fill="#012d76"/>
            <path id="Caminho_38" data-name="Caminho 38" d="M468.263,316.169q-.038-.234-.277-.176l-1.193.254a7.38,7.38,0,0,1-1.26.137,1.578,1.578,0,0,1-1.688-.975l2.311-.331c2.271-.312,3.443-1.209,3.582-2.77.179-2.009-1.208-3.3-3.647-3.3-3.062,0-5.009,1.931-5.283,5.013-.273,3.062,1.292,4.993,4.49,4.993a8.832,8.832,0,0,0,1.872-.215l1.235-.293a.257.257,0,0,0,.223-.312Zm-2.523-4.525q1.17,0,1.108.7c-.038.429-.355.7-.965.761l-2.056.312A1.916,1.916,0,0,1,465.74,311.644Z" transform="translate(-460.777 -309.011)" fill="#012d76"/>
          </g>
        </g>
        <path id="Caminho_39" data-name="Caminho 39" d="M688.91,324.516a.325.325,0,0,1-.31.2h-2.614c-.2,0-.263-.117-.169-.293l.87-1.892c.823-1.794.7-3.082.023-5.52l-1.644-5.851c-.062-.176.026-.293.221-.293h2.672a.262.262,0,0,1,.275.2s.352,1.325.558,2.206.4,1.889.671,3.255c.044.182.2.129.252-.014.163-.452.72-1.817,1.3-3.192s.9-2.235.9-2.235a.319.319,0,0,1,.312-.215H694.9c.2,0,.263.117.169.293Z" transform="translate(-659.065 -310.648)" fill="#012d76"/>
      </g>
    </g>
    <g id="Grupo_27" data-name="Grupo 27" transform="translate(78.982 179.1)">
      <path id="Caminho_40" data-name="Caminho 40" d="M154.23,320.467a4.138,4.138,0,0,1-1.093.452,5.94,5.94,0,0,1-1.668.217,3.312,3.312,0,0,1-2.536-.94,3.939,3.939,0,0,1-.971-2.586,7.185,7.185,0,0,1,.258-2.359,5.672,5.672,0,0,1,1.012-2,5.013,5.013,0,0,1,1.734-1.383,5.368,5.368,0,0,1,2.405-.515,6.05,6.05,0,0,1,1.886.307l-.434,1.067a4.1,4.1,0,0,0-.838-.226,5.236,5.236,0,0,0-.793-.063,3.64,3.64,0,0,0-1.73.407,3.882,3.882,0,0,0-1.295,1.1,4.846,4.846,0,0,0-.787,1.609,5.848,5.848,0,0,0-.208,1.926,3.049,3.049,0,0,0,.652,1.88,2.25,2.25,0,0,0,1.806.687,4.16,4.16,0,0,0,.768-.072,6.31,6.31,0,0,0,.708-.172,5.442,5.442,0,0,0,.57-.208,1.988,1.988,0,0,0,.371-.2Z" transform="translate(-147.953 -308.606)" fill="#008d71"/>
      <path id="Caminho_41" data-name="Caminho 41" d="M212.373,311.987a9.534,9.534,0,0,1,1.49-.452,7.442,7.442,0,0,1,1.613-.181,5.717,5.717,0,0,1,.8.054,3.69,3.69,0,0,1,.735.181l-.252,1.067a5.034,5.034,0,0,0-1.462-.217,6.158,6.158,0,0,0-.94.072,6.445,6.445,0,0,0-.932.217l-1.549,8.19H210.7Z" transform="translate(-203.43 -308.606)" fill="#008d71"/>
      <path id="Caminho_42" data-name="Caminho 42" d="M268.787,313.759a2.478,2.478,0,0,1-.413,1.645,3.129,3.129,0,0,1-1.345,1,8.256,8.256,0,0,1-2.132.533q-1.253.163-2.792.235l.02.38a4.242,4.242,0,0,0,.16.976,1.953,1.953,0,0,0,.44.786,2.132,2.132,0,0,0,.836.533,3.856,3.856,0,0,0,1.345.2,4.618,4.618,0,0,0,1.27-.181,4.451,4.451,0,0,0,1.2-.542l.184,1.085a5.373,5.373,0,0,1-1.333.533,5.957,5.957,0,0,1-1.5.19,4.965,4.965,0,0,1-1.692-.253,3.067,3.067,0,0,1-1.144-.705,2.771,2.771,0,0,1-.665-1.085,5.154,5.154,0,0,1-.255-1.392,7.547,7.547,0,0,1,.234-2.3,6.144,6.144,0,0,1,.937-2.043,4.936,4.936,0,0,1,1.621-1.455,4.541,4.541,0,0,1,2.267-.551,2.818,2.818,0,0,1,1.986.66A2.447,2.447,0,0,1,268.787,313.759Zm-2.811-1.338a3.06,3.06,0,0,0-1.346.3,3.759,3.759,0,0,0-1.1.8,4.867,4.867,0,0,0-.819,1.175,5.375,5.375,0,0,0-.48,1.41,20.3,20.3,0,0,0,2.585-.2,6.473,6.473,0,0,0,1.674-.452,1.949,1.949,0,0,0,.88-.7,1.574,1.574,0,0,0,.223-.931,1.365,1.365,0,0,0-.482-1.058A1.772,1.772,0,0,0,265.976,312.421Z" transform="translate(-247.868 -308.606)" fill="#008d71"/>
      <path id="Caminho_43" data-name="Caminho 43" d="M335.777,321.027a3.122,3.122,0,0,1-.216-.5,3.739,3.739,0,0,1-.147-.57,3.991,3.991,0,0,1-1.289.9,3.646,3.646,0,0,1-1.431.289,3.206,3.206,0,0,1-1.12-.2,2.672,2.672,0,0,1-.96-.615,3.29,3.29,0,0,1-.7-1.076,4.614,4.614,0,0,1-.327-1.564,6.81,6.81,0,0,1,.335-2.622,5.342,5.342,0,0,1,1.212-2,5.527,5.527,0,0,1,1.931-1.275,6.655,6.655,0,0,1,2.492-.452,6.4,6.4,0,0,1,2.182.38l-1.1,5.623q-.085.452-.137.85a4.181,4.181,0,0,0-.033.759,4.575,4.575,0,0,0,.139.922,4.952,4.952,0,0,0,.377.958Zm.612-8.444q-.331-.072-.606-.108a4.357,4.357,0,0,0-.566-.036,4.189,4.189,0,0,0-3.391,1.573,4.726,4.726,0,0,0-.834,1.609,5.4,5.4,0,0,0-.221,1.844,4.581,4.581,0,0,0,.21,1.239,2.273,2.273,0,0,0,.442.8,1.635,1.635,0,0,0,.614.434,1.96,1.96,0,0,0,.726.136,2.806,2.806,0,0,0,1.382-.353,4.261,4.261,0,0,0,1.185-1,5,5,0,0,1,.087-1.121q.112-.633.213-1.139Z" transform="translate(-308.532 -308.606)" fill="#008d71"/>
      <path id="Caminho_44" data-name="Caminho 44" d="M408.136,287.849l1.22-.217-.543,2.965h3.308l-.184,1.012H408.6l-.867,4.574a6.7,6.7,0,0,0-.118.7,4.261,4.261,0,0,0-.025.732,1.467,1.467,0,0,0,.46,1.139,1.608,1.608,0,0,0,1.019.325,3.518,3.518,0,0,0,1-.126,6.47,6.47,0,0,0,.885-.344l.165,1.067a7.286,7.286,0,0,1-1.083.343,5.135,5.135,0,0,1-1.2.145,3.614,3.614,0,0,1-.9-.108,2.079,2.079,0,0,1-.756-.362,1.928,1.928,0,0,1-.544-.669,2.6,2.6,0,0,1-.246-1.049,7.332,7.332,0,0,1,.16-1.79Z" transform="translate(-376.45 -287.632)" fill="#008d71"/>
    </g>
    <path id="Caminho_45" data-name="Caminho 45" d="M140.5,171.476a1.722,1.722,0,0,0-1.23.516l-10.051-4.743a2.085,2.085,0,0,1-.6-.363,1.834,1.834,0,0,1-.46-.784h0a1.732,1.732,0,1,0-1.251,2.184h0c1.054-.184,1.229-.28,1.824,0l10.054,4.739a1.728,1.728,0,1,0,1.719-1.55Z" transform="translate(-48.479)" fill="#008d71"/>
    <circle id="Elipse_9" data-name="Elipse 9" cx="1.728" cy="1.728" r="1.728" transform="translate(69.945 178.738)" fill="#012d76"/>
  </g>
</svg>
