<svg id="Grupo_6" data-name="Grupo 6" xmlns="http://www.w3.org/2000/svg" width="244.19" height="138.507" viewBox="0 0 244.19 138.507">
  <g id="Grupo_5" data-name="Grupo 5" transform="translate(0 44.928)">
    <path id="Caminho_1" data-name="Caminho 1" d="M253.969,310.176c0-17.232-30.6-20.51-30.6-36.229,0-7.734,6.3-13.03,19.754-13.03,18.661,0,18.913,15.719,11.853,15.719-7.566,0-1.346-14.963-12.945-14.963-4.539,0-8.658,2.353-8.658,8.911,0,14.122,30.345,16.055,30.345,35.473,0,11.852-12.525,14.878-20.931,14.878-21.351,0-23.537-22.7-15.635-22.7,11.937,0,.588,21.855,16.307,21.855C247.749,320.1,253.969,316.9,253.969,310.176Z" transform="translate(-222.95 -259.236)" fill="#3e4825"/>
    <path id="Caminho_2" data-name="Caminho 2" d="M337.221,331.712h-7.061a3.607,3.607,0,0,1-3.7-3.614v-.841c0,1.177-3.11,5.3-8.658,5.3-11.685,0-15.971-4.035-15.971-12.357,0-11.852,11.18-14.879,24.629-14.879v-5.38c0-6.557-2.522-9.078-7.313-9.078-11.012,0-3.11,11.684-11.684,11.684-6.3,0-6.641-12.441,12.1-12.441,11.769,0,16.055,5.128,16.055,15.215v21.939A7.136,7.136,0,0,0,337.221,331.712Zm-10.759-25.723c-12.188,0-15.467,4.2-15.467,13.87,0,8.994,2.943,11.852,7.314,11.852a8.754,8.754,0,0,0,8.153-7.145Z" transform="translate(-253.189 -270.424)" fill="#3e4825"/>
    <path id="Caminho_3" data-name="Caminho 3" d="M384.022,319.471h-7.061a3.608,3.608,0,0,1-3.7-3.614V264.832a7.521,7.521,0,0,0-1.6-4.539l10.76-2.1v56.824A7.135,7.135,0,0,0,384.022,319.471Z" transform="translate(-279.959 -258.191)" fill="#3e4825"/>
    <path id="Caminho_4" data-name="Caminho 4" d="M417.317,331.646l-14.627-37.49.084.336a13.729,13.729,0,0,0-2.858-4.539H413.2a5.33,5.33,0,0,0-.84,2.858,4.276,4.276,0,0,0,.336,1.682l9.527,24.538h.083c.085-.168.337-.757,1.514-3.11,8.994-17.821,6.948-23.446,2.157-25.967H438.5Z" transform="translate(-290.789 -270.367)" fill="#3e4825"/>
    <g id="Grupo_1" data-name="Grupo 1" transform="translate(46.922 86.513)">
      <path id="Caminho_6" data-name="Caminho 6" d="M299.04,398.6h.686v6.928h-.686Zm.424,3.361h1.281a1.15,1.15,0,0,0,.531-.114.776.776,0,0,0,.338-.336,1.124,1.124,0,0,0,.117-.53v-.715a1.219,1.219,0,0,0-.117-.554.812.812,0,0,0-.338-.353,1.094,1.094,0,0,0-.531-.121h-1.281V398.6H300.7a2.148,2.148,0,0,1,.928.183,1.306,1.306,0,0,1,.588.538,1.691,1.691,0,0,1,.2.85v.81a1.771,1.771,0,0,1-.2.873,1.329,1.329,0,0,1-.588.555,2.084,2.084,0,0,1-.928.19h-1.233Zm1.433.424.609-.219,1.105,3.361h-.8Z" transform="translate(-299.04 -398.527)" fill="#3e4825"/>
      <path id="Caminho_7" data-name="Caminho 7" d="M317.515,398.6h.686v6.923h-.686Zm.471,0h2.5v.638h-2.5Zm0,3.167h2.262v.638h-2.262Zm0,3.118h2.5v.638h-2.5Z" transform="translate(-306.122 -398.529)" fill="#3e4825"/>
      <path id="Caminho_8" data-name="Caminho 8" d="M335.944,405.371a1.187,1.187,0,0,1-.559-.541,1.966,1.966,0,0,1-.186-.9v-.343h.676v.343a1.008,1.008,0,0,0,.25.747,1.04,1.04,0,0,0,.76.248,1,1,0,0,0,.741-.248,1.023,1.023,0,0,0,.245-.747v-.409a1.058,1.058,0,0,0-.147-.57,1.343,1.343,0,0,0-.379-.395,4.994,4.994,0,0,0-.593-.34.149.149,0,0,1-.027-.012l-.022-.012-.067-.033a6.753,6.753,0,0,1-.754-.424,1.634,1.634,0,0,1-.481-.512,1.5,1.5,0,0,1-.2-.8v-.339a1.913,1.913,0,0,1,.186-.89,1.177,1.177,0,0,1,.557-.534,2.178,2.178,0,0,1,.933-.176,2.036,2.036,0,0,1,.9.179,1.169,1.169,0,0,1,.543.538,1.992,1.992,0,0,1,.181.9v.362h-.677V400.1a1.034,1.034,0,0,0-.238-.742.946.946,0,0,0-.714-.248,1.057,1.057,0,0,0-.75.236.927.927,0,0,0-.25.707v.338a.918.918,0,0,0,.157.543,1.335,1.335,0,0,0,.388.369,6.645,6.645,0,0,0,.636.34l.073.036.074.036.036.017a.2.2,0,0,1,.031.017,4.02,4.02,0,0,1,.659.4,1.6,1.6,0,0,1,.441.536,1.713,1.713,0,0,1,.171.8v.438a1.975,1.975,0,0,1-.184.9,1.193,1.193,0,0,1-.552.541,2.1,2.1,0,0,1-.926.181A2.188,2.188,0,0,1,335.944,405.371Z" transform="translate(-312.901 -398.484)" fill="#3e4825"/>
      <path id="Caminho_9" data-name="Caminho 9" d="M353.176,398.6h3.361v.638h-3.361Zm1.337.567h.686v6.356h-.686Z" transform="translate(-319.793 -398.529)" fill="#3e4825"/>
      <path id="Caminho_10" data-name="Caminho 10" d="M372.224,398.6h.828l1.6,6.923h-.762l-1.252-6.156-1.252,6.156h-.762Zm-.709,4.6h2.352v.638h-2.352Z" transform="translate(-326.481 -398.529)" fill="#3e4825"/>
      <path id="Caminho_11" data-name="Caminho 11" d="M390.018,405.358a1.151,1.151,0,0,1-.521-.541,2.081,2.081,0,0,1-.174-.9v-5.371h.686v5.4a.957.957,0,0,0,.221.691.884.884,0,0,0,.664.229.9.9,0,0,0,.671-.229.952.952,0,0,0,.224-.691v-5.4h.686v5.371a2.047,2.047,0,0,1-.176.9,1.178,1.178,0,0,1-.527.541,2.234,2.234,0,0,1-1.754,0Z" transform="translate(-333.649 -398.506)" fill="#3e4825"/>
      <path id="Caminho_12" data-name="Caminho 12" d="M406.971,398.6h.686v6.928h-.686Zm.424,3.361h1.281a1.142,1.142,0,0,0,.53-.114.774.774,0,0,0,.339-.336,1.123,1.123,0,0,0,.117-.53v-.715a1.218,1.218,0,0,0-.117-.554.81.81,0,0,0-.339-.353,1.086,1.086,0,0,0-.53-.121H407.4V398.6h1.233a2.15,2.15,0,0,1,.928.183,1.305,1.305,0,0,1,.588.538,1.691,1.691,0,0,1,.2.85v.81a1.771,1.771,0,0,1-.2.873,1.329,1.329,0,0,1-.588.555,2.086,2.086,0,0,1-.928.19H407.4Zm1.433.424.61-.219,1.1,3.361h-.8Z" transform="translate(-340.415 -398.527)" fill="#3e4825"/>
      <path id="Caminho_13" data-name="Caminho 13" d="M426.19,398.6h.828l1.6,6.923h-.762l-1.252-6.156-1.252,6.156h-.762Zm-.71,4.6h2.352v.638H425.48Z" transform="translate(-347.169 -398.529)" fill="#3e4825"/>
      <path id="Caminho_14" data-name="Caminho 14" d="M443.088,398.6h.643l2.2,5.685-.115.123V398.6h.676v6.918h-.652l-2.185-5.685.114-.124v5.809h-.676Z" transform="translate(-354.26 -398.53)" fill="#3e4825"/>
      <path id="Caminho_15" data-name="Caminho 15" d="M461.108,398.6h3.361v.638h-3.361Zm1.337.567h.686v6.356h-.686Z" transform="translate(-361.168 -398.529)" fill="#3e4825"/>
      <path id="Caminho_16" data-name="Caminho 16" d="M479.413,398.6h.686v6.923h-.686Zm.472,0h2.5v.638h-2.5Zm0,3.167h2.261v.638h-2.261Zm0,3.118h2.5v.638h-2.5Z" transform="translate(-368.185 -398.529)" fill="#3e4825"/>
    </g>
    <g id="Grupo_2" data-name="Grupo 2" transform="translate(172.319 19.404)">
      <path id="Caminho_17" data-name="Caminho 17" d="M538.113,331.66h-7.127a3.642,3.642,0,0,1-3.734-3.649v-.848c0,1.188-3.139,5.345-8.74,5.345-11.795,0-16.122-4.072-16.122-12.473,0-11.964,11.285-15.02,24.862-15.02v-5.43c0-6.619-2.546-9.164-7.382-9.164-11.116,0-3.139,11.794-11.795,11.794-6.364,0-6.7-12.558,12.219-12.558,11.879,0,16.207,5.176,16.207,15.358v22.148A7.2,7.2,0,0,0,538.113,331.66ZM527.252,305.7c-12.3,0-15.613,4.243-15.613,14,0,9.08,2.969,11.964,7.381,11.964a8.837,8.837,0,0,0,8.231-7.212Z" transform="translate(-502.39 -289.658)" fill="#3e4825"/>
    </g>
    <g id="Grupo_3" data-name="Grupo 3" transform="translate(68.893 73.004)">
      <circle id="Elipse_1" data-name="Elipse 1" cx="1.033" cy="1.033" r="1.033" fill="#819649"/>
      <circle id="Elipse_2" data-name="Elipse 2" cx="1.033" cy="1.033" r="1.033" transform="translate(13.638)" fill="#819649"/>
      <circle id="Elipse_3" data-name="Elipse 3" cx="1.033" cy="1.033" r="1.033" transform="translate(54.552)" fill="#819649"/>
      <circle id="Elipse_4" data-name="Elipse 4" cx="1.033" cy="1.033" r="1.033" transform="translate(40.914)" fill="#819649"/>
      <circle id="Elipse_5" data-name="Elipse 5" cx="1.033" cy="1.033" r="1.033" transform="translate(27.276)" fill="#819649"/>
      <circle id="Elipse_6" data-name="Elipse 6" cx="1.033" cy="1.033" r="1.033" transform="translate(68.19)" fill="#819649"/>
    </g>
    <path id="Caminho_18" data-name="Caminho 18" d="M474.071,316.322v-30.6a7.137,7.137,0,0,0-1.6-4.456l10.76-2.1v37.154a7.137,7.137,0,0,0,1.6,4.455H472.474A7.136,7.136,0,0,0,474.071,316.322Zm-1.345-48.839a5.926,5.926,0,1,1,5.967,5.885A5.919,5.919,0,0,1,472.726,267.483Z" transform="translate(-318.603 -259.497)" fill="#3e4825"/>
    <g id="Grupo_4" data-name="Grupo 4" transform="translate(61.433 5.107)">
      <path id="Caminho_19" data-name="Caminho 19" d="M323.093,276.14q-.45.024-.45-.5a5.53,5.53,0,0,1,.047-.592,5.76,5.76,0,0,0,.048-.616,7.107,7.107,0,0,0-.083-.877,6.961,6.961,0,0,1-.083-.876q0-.332.5-.522a43.744,43.744,0,0,0,4.5-2.345q1.445-1.043,4.383-3.1a1.642,1.642,0,0,1,.474-.237,1.274,1.274,0,0,1,.4.237q.545.569,1.73,1.611.662.379,1.942,1.209c.252.174.379.331.379.474q0,.19-.332.5a21.244,21.244,0,0,1-6.255,3.731,21.541,21.541,0,0,1-6.989,1.907Z" transform="translate(-322.572 -266.473)" fill="#3e4825"/>
    </g>
  </g>
  <path id="Caminho_20" data-name="Caminho 20" d="M578.215,246.442a32.67,32.67,0,0,0-30.772-32.508A32.673,32.673,0,0,0,515,185.333l-2.174,0,.048,24.248a32.671,32.671,0,0,0,30.772,32.51,32.674,32.674,0,0,0,32.439,28.6l2.174,0Zm-30.474-8.323-.078-6.6s-.049-2.591-2.32-2.439c-2.016.154-1.931,2.549-1.931,2.549l-.023,4.111,0,1.988a28.32,28.32,0,0,1-26.165-28.149l-.04-19.816a28.32,28.32,0,0,1,26.165,28.149v.22c.089-.007.168-.02.262-.025a32.128,32.128,0,0,1,8.488.862l0,.023a28.327,28.327,0,0,1,21.768,27.463l.04,19.817A28.321,28.321,0,0,1,547.741,238.119Zm-.116-12.067A2.117,2.117,0,1,0,545.351,228,2.117,2.117,0,0,0,547.625,226.051Zm-.9-4.729a1.36,1.36,0,1,0-1.46,1.251A1.359,1.359,0,0,0,546.721,221.323Z" transform="translate(-334.073 -185.333)" fill="#819649"/>
</svg>
