<svg xmlns="http://www.w3.org/2000/svg" width="20.056" height="20.039" viewBox="0 0 20.056 20.039">
  <path id="Caminho_32" data-name="Caminho 32" d="M568.747,155.975a8.283,8.283,0,0,1-4.549-1.36l-3.172,1.007,1.023-3.055a8.118,8.118,0,0,1-1.577-4.817,6.216,6.216,0,0,1,.05-.789,8.278,8.278,0,0,1,16.481.151c.017.218.017.436.017.638a8.259,8.259,0,0,1-8.274,8.224Zm4.514-6.243c-.251-.117-1.426-.7-1.644-.789-.235-.067-.386-.118-.554.134a11.77,11.77,0,0,1-.756.923c-.151.168-.285.185-.52.067a6.314,6.314,0,0,1-1.947-1.191,7.11,7.11,0,0,1-1.343-1.645c-.134-.252-.017-.369.1-.5a3.091,3.091,0,0,0,.369-.42.435.435,0,0,0,.084-.1,2.378,2.378,0,0,0,.151-.285.411.411,0,0,0-.016-.419c-.051-.117-.537-1.309-.739-1.779-.2-.487-.4-.4-.537-.4-.151,0-.3-.017-.469-.017a.825.825,0,0,0-.638.3,2.676,2.676,0,0,0-.721,2.8,5.266,5.266,0,0,0,.856,1.662,9.736,9.736,0,0,0,4.111,3.609c2.467.957,2.467.638,2.9.6a2.4,2.4,0,0,0,1.628-1.141,1.91,1.91,0,0,0,.134-1.142c-.05-.084-.218-.151-.453-.268Zm5.321-2.215a9.836,9.836,0,0,0-19.654-.185,3.481,3.481,0,0,0-.017.419,9.766,9.766,0,0,0,1.41,5.052l-1.779,5.236L564,156.311a9.87,9.87,0,0,0,14.6-8.56c0-.084-.016-.151-.016-.235Z" transform="translate(-558.543 -138)" fill="#819649" fill-rule="evenodd"/>
</svg>
